<?xml version="1.0" encoding="iso-8859-1"?>
<!-- Generator: Adobe Illustrator 15.0.0, SVG Export Plug-In . SVG Version: 6.00 Build 0)  -->
<!DOCTYPE svg PUBLIC "-//W3C//DTD SVG 1.1//EN" "http://www.w3.org/Graphics/SVG/1.1/DTD/svg11.dtd">
<svg version="1.1" id="Ebene_1" xmlns="http://www.w3.org/2000/svg" xmlns:xlink="http://www.w3.org/1999/xlink" x="0px" y="0px"
	 width="44px" height="44px" viewBox="0 0 44 44" style="enable-background:new 0 0 44 44;" xml:space="preserve">
  <rect x="32" y="10" transform="matrix(0.7071 0.7071 -0.7071 0.7071 17.4436 -20.1127)" style="fill:#333333;" width="2" height="2"/>
  <rect x="29" y="13" transform="matrix(0.7072 0.707 -0.707 0.7072 18.6809 -17.1107)" style="fill:#333333;" width="1.999" height="2"/>
  <circle style="fill:#0888DD;" cx="11" cy="33" r="4"/>
  <circle style="fill:#0888DD;" cx="34" cy="10" r="4"/>
  <rect x="26" y="16" transform="matrix(0.7072 0.707 -0.707 0.7072 19.9236 -14.1115)" style="fill:#333333;" width="1.999" height="2"/>
  <rect x="23" y="19" transform="matrix(0.7072 0.707 -0.707 0.7072 21.1662 -11.1122)" style="fill:#333333;" width="1.999" height="2"/>
  <rect x="20" y="22" transform="matrix(0.7071 0.7071 -0.7071 0.7071 22.4142 -8.1127)" style="fill:#333333;" width="2" height="2"/>
  <rect x="17" y="25" transform="matrix(0.7071 0.7071 -0.7071 0.7071 23.6569 -5.1127)" style="fill:#333333;" width="2" height="2"/>
  <rect x="14" y="28" transform="matrix(0.7071 0.7071 -0.7071 0.7071 24.8995 -2.1127)" style="fill:#333333;" width="2" height="2"/>
</svg>
