<?xml version="1.0" encoding="iso-8859-1"?>
<!-- Generator: Adobe Illustrator 15.0.0, SVG Export Plug-In . SVG Version: 6.00 Build 0)  -->
<!DOCTYPE svg PUBLIC "-//W3C//DTD SVG 1.1//EN" "http://www.w3.org/Graphics/SVG/1.1/DTD/svg11.dtd">
<svg version="1.1" id="Ebene_1" xmlns="http://www.w3.org/2000/svg" xmlns:xlink="http://www.w3.org/1999/xlink" x="0px" y="0px"
	 width="44px" height="44px" viewBox="0 0 44 44" style="enable-background:new 0 0 44 44;" xml:space="preserve">
<g>
	<g>
		<path style="fill:#333333;" d="M34,12H14.894C13.236,12,12,13.174,12,14.83v4.844l-5,3.125l5,3.125v4.246
			c0,1.656,1.236,2.83,2.894,2.83H34c1.656,0,3-1.174,3-2.83V14.83C37,13.174,35.656,12,34,12z"/>
		<path style="fill:#FFFFFF;" d="M34,13H14.894C13.791,13,13,13.728,13,14.83v5.469l-4,2.5l4,2.5v4.871
			c0,1.103,0.791,1.83,1.894,1.83H34c1.104,0,2-0.728,2-1.83V14.83C36,13.728,35.104,13,34,13z"/>
		<g>
			<path style="fill:#50ADFA;" d="M17.857,18.414h1.01l2.5,7.29h-0.922l-0.602-1.87h-2.959l-0.596,1.87h-0.938L17.857,18.414z
				 M18.359,19.386l-1.205,3.628h2.416L18.359,19.386z"/>
			<path style="fill:#50ADFA;" d="M22.32,18.414h2.266c0.677,0,1.197,0.156,1.564,0.469c0.366,0.312,0.549,0.757,0.549,1.333
				c0,0.446-0.094,0.801-0.281,1.064c-0.186,0.264-0.462,0.428-0.826,0.493c0.439,0.104,0.779,0.321,1.02,0.651
				c0.24,0.331,0.361,0.743,0.361,1.238c0,0.651-0.199,1.154-0.598,1.509s-0.966,0.532-1.701,0.532H22.32V18.414z M23.209,19.225
				v2.197h1.312c0.434,0,0.756-0.091,0.97-0.271c0.214-0.182,0.319-0.457,0.319-0.828c0-0.368-0.105-0.643-0.319-0.825
				s-0.536-0.273-0.97-0.273H23.209z M23.209,22.223v2.671h1.42c0.479,0,0.833-0.109,1.062-0.33
				c0.229-0.219,0.344-0.556,0.344-1.008c0-0.456-0.114-0.792-0.344-1.008c-0.229-0.217-0.584-0.325-1.062-0.325H23.209z"/>
			<path style="fill:#50ADFA;" d="M33.229,18.976v1.04c-0.3-0.31-0.619-0.54-0.957-0.693c-0.339-0.153-0.699-0.229-1.08-0.229
				c-0.748,0-1.322,0.255-1.721,0.764c-0.398,0.51-0.598,1.246-0.598,2.21c0,0.96,0.199,1.695,0.598,2.204
				c0.398,0.51,0.973,0.765,1.721,0.765c0.381,0,0.741-0.076,1.08-0.229c0.338-0.153,0.657-0.384,0.957-0.693v1.03
				c-0.311,0.234-0.639,0.41-0.986,0.527c-0.349,0.117-0.715,0.176-1.1,0.176c-0.996,0-1.778-0.338-2.348-1.013
				c-0.57-0.676-0.855-1.598-0.855-2.767c0-1.172,0.285-2.096,0.855-2.771c0.569-0.676,1.352-1.014,2.348-1.014
				c0.391,0,0.76,0.058,1.109,0.174C32.6,18.571,32.926,18.744,33.229,18.976z"/>
		</g>
	</g>
</g>
</svg>
