<?xml version="1.0" encoding="iso-8859-1"?>
<!-- Generator: Adobe Illustrator 15.0.0, SVG Export Plug-In . SVG Version: 6.00 Build 0)  -->
<!DOCTYPE svg PUBLIC "-//W3C//DTD SVG 1.1//EN" "http://www.w3.org/Graphics/SVG/1.1/DTD/svg11.dtd">
<svg version="1.1" id="Ebene_1" xmlns="http://www.w3.org/2000/svg" xmlns:xlink="http://www.w3.org/1999/xlink" x="0px" y="0px"
	 width="44px" height="44px" viewBox="0 0 44 44" style="enable-background:new 0 0 44 44;" xml:space="preserve">
  <rect x="34" y="8" transform="matrix(0.7071 0.7071 -0.7071 0.7071 16.6152 -22.1127)" style="fill:#333333;" width="2" height="2"/>
  <rect x="31" y="11" transform="matrix(0.7071 0.7071 -0.7071 0.7071 17.8579 -19.1127)" style="fill:#333333;" width="2" height="2"/>
  <rect x="22" y="20" transform="matrix(0.7072 0.707 -0.707 0.7072 21.5804 -10.1125)" style="fill:#333333;" width="2" height="2"/>
  <rect x="19" y="23" transform="matrix(0.7072 0.707 -0.707 0.7072 22.8231 -7.1132)" style="fill:#333333;" width="2" height="2"/>
  <rect x="10" y="32" transform="matrix(0.7072 0.707 -0.707 0.7072 26.551 1.8846)" style="fill:#333333;" width="2" height="2"/>
  <rect x="7" y="35" transform="matrix(0.7072 0.707 -0.707 0.7072 27.7936 4.8839)" style="fill:#333333;" width="2" height="2"/>
  <circle style="fill:#0888DD;" cx="28" cy="16" r="4"/>
  <circle style="fill:#0888DD;" cx="15" cy="29" r="4"/>
</svg>
