<?xml version="1.0" encoding="iso-8859-1"?>
<!-- Generator: Adobe Illustrator 15.0.0, SVG Export Plug-In . SVG Version: 6.00 Build 0)  -->
<!DOCTYPE svg PUBLIC "-//W3C//DTD SVG 1.1//EN" "http://www.w3.org/Graphics/SVG/1.1/DTD/svg11.dtd">
<svg version="1.1" id="Ebene_1" xmlns="http://www.w3.org/2000/svg" xmlns:xlink="http://www.w3.org/1999/xlink" x="0px" y="0px"
	 width="44px" height="44px" viewBox="0 0 44 44" style="enable-background:new 0 0 44 44;" xml:space="preserve">
  <rect x="11" y="12" style="fill:#50AEFB;" width="22" height="20"/>
  <polygon style="fill:#333333;" points="37,21 33,21 33,17 32,17 32,21 26,21 26,17 25,17 25,21 19,21 19,17 18,17 18,21 12,21
    12,17 11,17 11,21 7,21 7,23 11,23 11,27 12,27 12,23 18,23 18,27 19,27 19,23 25,23 25,27 26,27 26,23 32,23 32,27 33,27 33,23
    37,23 		"/>
</svg>
