<?xml version="1.0" encoding="iso-8859-1"?>
<!-- Generator: Adobe Illustrator 15.0.0, SVG Export Plug-In . SVG Version: 6.00 Build 0)  -->
<!DOCTYPE svg PUBLIC "-//W3C//DTD SVG 1.1//EN" "http://www.w3.org/Graphics/SVG/1.1/DTD/svg11.dtd">
<svg version="1.1" id="Ebene_1" xmlns="http://www.w3.org/2000/svg" xmlns:xlink="http://www.w3.org/1999/xlink" x="0px" y="0px"
	 width="22px" height="24px" viewBox="0 0 22 24" style="enable-background:new 0 0 22 24;" xml:space="preserve">
<path style="fill:#0888DD;" d="M22,5c0-1.104-0.896-2-2-2h-3.643C15.91,1.28,14.359,0,12.5,0h-3C7.642,0,6.089,1.28,5.642,3H2
	C0.896,3,0,3.896,0,5h2v15.5C2,22.157,3.843,24,5.5,24h12c1.656,0,2.5-1.843,2.5-3.5V5H22z M9.5,2h3c0.736,0,1.375,0.405,1.722,1
	H7.778C8.125,2.405,8.763,2,9.5,2z M18,20.5c0,0.871-0.354,1.435-0.5,1.5h-12C4.953,22,4,21.047,4,20.5V5h14V20.5z M6,18V9
	c0-0.552,0.448-1,1-1s1,0.448,1,1v9c0,0.553-0.448,1-1,1S6,18.553,6,18z M10,18V9c0-0.552,0.448-1,1-1c0.553,0,1,0.448,1,1v9
	c0,0.553-0.447,1-1,1C10.448,19,10,18.553,10,18z M14,18V9c0-0.552,0.447-1,1-1s1,0.448,1,1v9c0,0.553-0.447,1-1,1S14,18.553,14,18z
	"/>
</svg>
