<?xml version="1.0" encoding="iso-8859-1"?>
<!-- Generator: Adobe Illustrator 15.0.0, SVG Export Plug-In . SVG Version: 6.00 Build 0)  -->
<!DOCTYPE svg PUBLIC "-//W3C//DTD SVG 1.1//EN" "http://www.w3.org/Graphics/SVG/1.1/DTD/svg11.dtd">
<svg version="1.1" id="Ebene_1" xmlns="http://www.w3.org/2000/svg" xmlns:xlink="http://www.w3.org/1999/xlink" x="0px" y="0px"
	 width="44px" height="44px" viewBox="0 0 44 44" style="enable-background:new 0 0 44 44;" xml:space="preserve">
    <g>
        <path d="M26.288,21.911v6.24h-1.797v-1.66c-0.41,0.664-0.921,1.154-1.533,1.47s-1.361,0.474-2.246,0.474
            c-1.12,0-2.01-0.314-2.671-0.942s-0.991-1.47-0.991-2.524c0-1.23,0.412-2.158,1.235-2.783s2.052-0.938,3.687-0.938h2.52v-0.176
            c0-0.827-0.272-1.467-0.815-1.919s-1.307-0.679-2.29-0.679c-0.625,0-1.234,0.075-1.826,0.225s-1.162,0.374-1.709,0.674v-1.66
            c0.658-0.254,1.295-0.444,1.914-0.571s1.221-0.19,1.807-0.19c1.582,0,2.764,0.41,3.545,1.23S26.288,20.244,26.288,21.911z
             M22.704,22.653c-1.452,0-2.458,0.166-3.018,0.498s-0.84,0.898-0.84,1.699c0,0.638,0.21,1.145,0.63,1.519s0.991,0.562,1.714,0.562
            c0.996,0,1.796-0.354,2.397-1.06s0.903-1.646,0.903-2.817v-0.4H22.704z"/>
    </g>
    <g>
        <rect x="10" y="12" width="2" height="20"/>
    </g>
    <rect x="32" y="12" width="2" height="20"/>
</svg>
