<?xml version="1.0" encoding="utf-8"?>
<!-- Generator: Adobe Illustrator 15.0.0, SVG Export Plug-In . SVG Version: 6.00 Build 0)  -->
<!DOCTYPE svg PUBLIC "-//W3C//DTD SVG 1.1//EN" "http://www.w3.org/Graphics/SVG/1.1/DTD/svg11.dtd">
<svg version="1.1" xmlns="http://www.w3.org/2000/svg" xmlns:xlink="http://www.w3.org/1999/xlink"
	 viewBox="0 0 16 16" enable-background="new 0 0 16 16" xml:space="preserve">
  <path d="M12,2c1.103,0,2,0.897,2,2v8c0,1.103-0.897,2-2,2H4c-1.103,0-2-0.897-2-2V4c0-1.103,0.897-2,2-2H12 M12,0H4
    c-2.21,0-4,1.791-4,4v8c0,2.209,1.791,4,4,4h8c2.209,0,4-1.791,4-4V4C16,1.791,14.209,0,12,0L12,0z"/>
</svg>
