<?xml version="1.0" encoding="iso-8859-1"?>
<!-- Generator: Adobe Illustrator 19.1.0, SVG Export Plug-In . SVG Version: 6.00 Build 0)  -->
<svg xmlns="http://www.w3.org/2000/svg" xmlns:xlink="http://www.w3.org/1999/xlink" version="1.1" id="Capa_1" x="0px" y="0px" viewBox="0 0 51.742 51.742" style="enable-background:new 0 0 51.742 51.742;" xml:space="preserve" width="512px" height="512px">
<g>
	<g>
		<path d="M26.371,43.123c1.104,0,2-0.896,2-2V6.249l10.305,10.058c0.391,0.391,1.027,0.586,1.54,0.586    c0.512,0,1.086-0.195,1.477-0.586c0.781-0.78,0.812-2.047,0.032-2.828L28.85,0.586C28.475,0.211,27.975,0,27.444,0    c-0.53,0-1.035,0.211-1.41,0.586l-12.892,12.89c-0.781,0.78-0.78,2.047,0,2.828c0.781,0.781,1.798,0.781,2.579,0l8.649-8.897    v33.716C24.371,42.227,25.267,43.123,26.371,43.123z" fill="#2288ee"/>
		<path d="M5.371,39.123c-1.104,0-2,0.896-2,2v6.326c0,2.533,2.613,4.293,5.113,4.293h36.349c2.378,0,3.538-1.541,3.538-4.293    v-6.326c0-1.104-0.896-2-2-2s-2,0.896-2,2v6.326c0,0.326,0.44,0.293,0.391,0.293H8.484c-0.287,0-1.113,0.021-1.113-0.293v-6.326    C7.371,40.018,6.475,39.123,5.371,39.123z" fill="#2288ee"/>
	</g>
</g>
</svg>
