<?xml version="1.0" encoding="iso-8859-1"?>
<svg version="1.1" id="Ebene_1" xmlns="http://www.w3.org/2000/svg" xmlns:xlink="http://www.w3.org/1999/xlink" x="0px" y="0px"
	 width="44px" height="44px" viewBox="0 0 44 44" >
<g>
	<polygon points="25.861,8.6 22.831,13.124 26.01,17.897 24.392,17.897 21.959,14.245 19.519,17.897 
		17.9,17.897 21.154,13.033 18.174,8.6 19.801,8.6 22.018,11.913 24.234,8.6 	"/>
	<path d="M22.383,36.76c-0.387,1.106-0.766,1.829-1.134,2.166c-0.368,0.338-0.862,0.507-1.481,0.507h-1.096
		v-1.278h0.805c0.376,0,0.669-0.1,0.88-0.299s0.443-0.67,0.697-1.411l0.249-0.697L17.917,26.6h1.453l2.615,7.271L24.6,26.6h1.461
		L22.383,36.76z"/>
</g>
<rect x="12" y="21" width="20" height="2"/>
</svg>
