<svg xmlns:rdf="http://www.w3.org/1999/02/22-rdf-syntax-ns#" xmlns="http://www.w3.org/2000/svg" xml:space="preserve" height="17.719" width="25.873" version="1.1" xmlns:cc="http://creativecommons.org/ns#" xmlns:dc="http://purl.org/dc/elements/1.1/" viewBox="0 0 25.873436 17.71875"><path d="m0.84297 0c-0.9 0-1.1 0.30625-0.5 0.90625 0.1 0.1 0.78125 0.8 0.78125 3.5 0 1.4891 1.5486 3.401 3.0312 3.9688-0.00368 0.19016-0.03125 0.31858-0.03125 0.53125 0 0.9 0.018639 1.9917 0.03125 2.9375 0.00631 0.47292 0.016662 0.92628 0.03125 1.2812 0.01405 0.34189 0.016305 0.56734 0.0625 0.8125 0.00175 0.0099-0.00188 0.02145 0 0.03125 0.15512 0.80826 0.76238 1.301 1.4375 1.7188 0.6833 0.42283 1.5243 0.76851 2.4062 1.0625 1.764 0.58799 3.6571 0.96875 4.8438 0.96875s3.0616-0.38078 4.8125-0.96875c0.87543-0.29399 1.6903-0.64207 2.375-1.0625 0.68474-0.42043 1.312-0.88845 1.5-1.6875a0.80008 0.80008 0 0 0 0 -0.03125c0.05115-0.25574 0.04791-0.48878 0.0625-0.84375s0.02494-0.80833 0.03125-1.2812c0.01261-0.94584 0.03125-2.0375 0.03125-2.9375 0-0.21268-0.02757-0.34109-0.03125-0.53125 1.4826-0.56778 3.0312-2.4796 3.0312-3.9688 0-2.7 0.68125-3.4 0.78125-3.5 0.6-0.6 0.4-0.90625-0.5-0.90625-1.8476 0.097244-4.8398 0.2807-6.75 2.4062-0.182-0.0644-0.357-0.1124-0.562-0.156-0.48-0.1019-1.04-0.1562-1.594-0.1562-1.5975 0-2.6762 0.66485-3.1875 1-0.51132-0.33515-1.59-1-3.1875-1-0.52667 0-1.0688 0.035244-1.5625 0.125-0.2071 0.0376-0.4273 0.0723-0.6248 0.1562-1.9113-2.0949-4.8806-2.2783-6.7187-2.375zm8.2187 3.7188c0.21973-0.00809 0.45083 0 0.6875 0 1.3549 0 2.7188 0.9375 2.7188 0.9375a0.80008 0.80008 0 0 0 0.9375 0s1.3638-0.9375 2.7188-0.9375c0.44667 0 0.90535 0.020643 1.25 0.09375 0.25849 0.05483 0.45441 0.17495 0.5 0.1875-0.01915-0.016271 0.03247 0.015317 0.09375 0.09375 0.07295 0.093373 0.17088 0.22784 0.28125 0.375 0.20528 0.27371 0.45578 0.61436 0.6875 0.9375 0.01744 0.02432 0.04529 0.03841 0.0625 0.0625 0.20877 0.35571 0.43667 0.68639 0.625 0.9375 0.19038 0.25384 0.27648 0.39502 0.40625 0.53125-0.0129 0.000703 0.03873 0.11351 0.0625 0.375 0.0317 0.34865 0.03125 0.89375 0.03125 1.5938 0 0.9 0.01239 2.0083 0 2.9375-0.0062 0.46458-0.01771 0.88934-0.03125 1.2188-0.01283 0.31212-0.02931 0.54054-0.03125 0.5625-0.01199 0.05095-0.2285 0.3673-0.75 0.6875s-1.2942 0.66899-2.0938 0.9375c-1.5991 0.53702-3.4679 0.84375-4.2812 0.84375-0.81333 0-2.7327-0.30674-4.3438-0.84375-0.80552-0.26851-1.5489-0.6197-2.0625-0.9375-0.51357-0.3178-0.71451-0.63221-0.71875-0.65625 0.00115 0.0057-0.017713-0.26434-0.03125-0.59375s-0.025056-0.75417-0.03125-1.2188c-0.012389-0.92916 0-2.0375 0-2.9375 0-0.7-0.0004452-1.2451 0.03125-1.5938 0.015847-0.17432 0.045972-0.28872 0.0625-0.34375 0.00688-0.0064-0.00215-0.03137 0-0.03125a0.80008 0.80008 0 0 0 0.0625 -0.09375c0.054486-0.08173 0.59646-0.81623 1.0938-1.5 0.24864-0.34188 0.49131-0.6754 0.6875-0.9375 0.098095-0.13105 0.1869-0.2629 0.25-0.34375 0.063104-0.080851 0.12-0.15125 0.0625-0.09375a0.80008 0.80008 0 0 0 0.03125 -0.0625c0.024393 0.00403 0.18899-0.079817 0.4375-0.125 0.16567-0.030122 0.37402-0.054406 0.59375-0.0625zm0.4375 3.0312c-0.22205 0.0091-0.46681 0.04303-0.71875 0.09375-0.013681 0.0028-0.017479-0.0029-0.03125 0-1.6885 0.32782-2.5938 1.3125-2.5938 1.3125l-0.1249 0.1563 0.0312 0.1875s0.13837 0.64887 0.625 1.25 1.3996 1.1574 2.7188 0.9375c1.1618-0.22129 1.8297-0.93772 2.1562-1.5625 0.32659-0.62478 0.34375-1.1875 0.34375-1.1875v-0.15625l-0.0625-0.09375s-0.27457-0.36442-0.78125-0.625c-0.376-0.1928-0.898-0.3398-1.5638-0.3125zm6.875 0c-0.66616-0.02726-1.1876 0.11968-1.5625 0.3125-0.50668 0.26058-0.78125 0.625-0.78125 0.625l-0.0625 0.09375v0.15625s0.01716 0.56272 0.34375 1.1875 0.99447 1.3412 2.1562 1.5625c1.3191 0.21986 2.2321-0.33637 2.7188-0.9375 0.48663-0.60113 0.625-1.25 0.625-1.25l0.03125-0.1875-0.125-0.15625s-0.90527-0.98468-2.5938-1.3125c-0.01166-0.0023-0.01952 0.0022-0.03125 0-0.252-0.0507-0.497-0.0846-0.719-0.0937zm-6.2812 0.8125c0.24999 0.04985 0.46257 0.10397 0.625 0.1875 0.29097 0.14964 0.3574 0.22284 0.40625 0.28125-0.01101 0.10929-0.01234 0.35512-0.21875 0.75-0.24841 0.47522-0.68678 0.97754-1.625 1.1562-1.0809 0.18014-1.6366-0.20738-2-0.65625-0.2925-0.3615-0.3356-0.6426-0.3749-0.7813 0.1291-0.1247 0.4224-0.3712 0.9062-0.5938-0.042286 0.12819-0.0625 0.26389-0.0625 0.40625 0 0.71797 0.56328 1.2812 1.2812 1.2812 0.71797 0 1.3125-0.56328 1.3125-1.2812 0-0.28123-0.09821-0.5373-0.25-0.75zm5.6875 0c-0.15179 0.2127-0.25 0.46877-0.25 0.75 0 0.71797 0.59453 1.2812 1.3125 1.2812s1.2812-0.56328 1.2812-1.2812c0-0.14236-0.02021-0.27806-0.0625-0.40625 0.48378 0.22252 0.77716 0.46901 0.90625 0.59375-0.0393 0.1387-0.0824 0.4198-0.375 0.78125-0.36337 0.44887-0.91913 0.83639-2 0.65625-0.93822-0.17871-1.3766-0.68103-1.625-1.1562-0.20641-0.39488-0.20774-0.64071-0.21875-0.75 0.04885-0.05841 0.11528-0.13161 0.40625-0.28125 0.16243-0.08354 0.37501-0.13765 0.625-0.1875zm-2.8438 2.8438c-0.8 0-1.2062 0.2875-1.4062 0.6875-1.8 0-2.1875 1.7188-2.1875 1.7188s1.0938 2 3.5938 2 3.5938-2 3.5938-2-0.5875-1.5938-2.1875-1.5938c-0.3-0.4-0.70625-0.8125-1.4062-0.8125zm-1.625 2.3438c0.1625-0.0125 0.375 0.0062 0.625 0.15625 0.2 0.1 0.59375 0.3125 1.0938 0.3125 0.3 0 0.6125-0.11875 0.8125-0.21875 0.1 0 0.0875-0.09375 0.1875-0.09375 0.6-0.2 0.90625-0.1 0.90625 0 0.1 0 0.09375 0.0875 0.09375 0.1875-0.1 0.1-0.18125 0.225-0.28125 0.125 0 0-0.2-0.10625-0.5 0.09375-0.1 0-0.11875-0.0063-0.21875 0.09375-0.3 0.1-0.59375 0.3125-1.0938 0.3125-0.6 0-1.1125-0.30625-1.3125-0.40625-0.3-0.2-0.375-0.09375-0.375-0.09375-0.1 0.1-0.3125-0.025-0.3125-0.125-0.1-0.1-0.0062-0.28125 0.09375-0.28125 0 0 0.11875-0.05 0.28125-0.0625z"/></svg>
