<svg xmlns:rdf="http://www.w3.org/1999/02/22-rdf-syntax-ns#" xmlns="http://www.w3.org/2000/svg" height="31.79" width="28.28" version="1.1" xmlns:cc="http://creativecommons.org/ns#" xmlns:dc="http://purl.org/dc/elements/1.1/" viewBox="0 0 28.280001 31.790001">
 <path d="m5.655 11.548v1.414q0 0.236-0.236 0.236h-1.414q-0.236 0-0.236-0.236v-1.414q0-0.236 0.236-0.236h1.414q0.236 0 0.236 0.236zm1.886-3.771v1.414q0 0.236-0.236 0.236h-3.299q-0.236 0-0.236-0.236v-1.414q0-0.236 0.236-0.236h3.299q0.236 0 0.236 0.236zm-1.886-3.771v1.414q0 0.236-0.236 0.236h-1.414q-0.236 0-0.236-0.236v-1.414q0-0.236 0.236-0.236h1.414q0.236 0 0.236 0.236zm15.084 7.542v1.414q0 0.236-0.236 0.236h-12.726q-0.236 0-0.236-0.236v-1.414q0-0.236 0.236-0.236h12.726q0.236 0 0.236 0.236zm-9.428-3.771v1.414q0 0.236-0.236 0.236h-1.414q-0.236 0-0.236-0.236v-1.414q0-0.236 0.236-0.236h1.414q0.236 0 0.236 0.236zm-1.885-3.771v1.414q0 0.236-0.236 0.236h-1.414q-0.236 0-0.236-0.236v-1.414q0-0.236 0.236-0.236h1.414q0.236 0 0.236 0.236zm5.656 3.771v1.414q0 0.236-0.236 0.236h-1.414q-0.236 0-0.236-0.236v-1.414q0-0.236 0.236-0.236h1.414q0.236 0 0.236 0.236zm-1.885-3.771v1.414q0 0.236-0.236 0.236h-1.414q-0.236 0-0.236-0.236v-1.414q0-0.236 0.236-0.236h1.414q0.236 0 0.236 0.236zm5.656 3.771v1.414q0 0.236-0.236 0.236h-1.414q-0.236 0-0.236-0.236v-1.414q0-0.236 0.236-0.236h1.414q0.236 0 0.236 0.236zm5.656 3.771v1.414q0 0.236-0.236 0.236h-1.414q-0.236 0-0.236-0.236v-1.414q0-0.236 0.236-0.236h1.414q0.236 0 0.236 0.236zm-7.541-7.542v1.414q0 0.236-0.236 0.236h-1.414q-0.236 0-0.236-0.236v-1.414q0-0.236 0.236-0.236h1.414q0.236 0 0.236 0.236zm3.771 0v1.414q0 0.236-0.236 0.236h-1.414q-0.236 0-0.236-0.236v-1.414q0-0.236 0.236-0.236h1.414q0.236 0 0.236 0.236zm3.77 0v5.185q0 0.236-0.236 0.236h-3.299q-0.236 0-0.236-0.236v-1.414q0-0.236 0.236-0.236h1.65v-3.535q0-0.236 0.236-0.236h1.414q0.236 0 0.236 0.236zm1.886 11.077v-13.198h-24.51v13.198h24.51zm1.885-13.198v13.198q0 0.781-0.552 1.333t-1.333 0.552h-24.51q-0.781 0-1.333-0.552t-0.552-1.333v-13.198q0-0.781 0.552-1.333t1.333-0.552h24.51q0.781 0 1.333 0.552t0.552 1.333z"/>
 <path d="m21.817 24.253q0 0.196-0.151 0.347l-7.039 7.039q-0.151 0.151-0.347 0.151t-0.347-0.151l-7.039-7.039q-0.151-0.151-0.151-0.347t0.151-0.347l0.755-0.755q0.151-0.151 0.347-0.151t0.347 0.151l5.936 5.936 5.936-5.936q0.151-0.151 0.347-0.151t0.347 0.151l0.755 0.755q0.151 0.151 0.151 0.347z"/>
</svg>
