<?xml version="1.0" encoding="iso-8859-1"?>
<!-- Generator: Adobe Illustrator 15.0.0, SVG Export Plug-In . SVG Version: 6.00 Build 0)  -->
<!DOCTYPE svg PUBLIC "-//W3C//DTD SVG 1.1//EN" "http://www.w3.org/Graphics/SVG/1.1/DTD/svg11.dtd">
<svg version="1.1" id="Ebene_1" xmlns="http://www.w3.org/2000/svg" xmlns:xlink="http://www.w3.org/1999/xlink" x="0px" y="0px"
	 width="44px" height="44px" viewBox="0 0 44 44" style="enable-background:new 0 0 44 44;" xml:space="preserve">
<path style="fill:#0088DD;" d="M28.869,16.322h-1.74l-1.684,8.587c-0.115,0.581-0.096,1.007,0.059,1.277
	c0.154,0.271,0.464,0.406,0.928,0.406c0.117,0,0.271-0.02,0.465-0.058c0.193,0,0.31-0.02,0.348-0.058l-0.348,1.682
	c-0.271,0.116-0.58,0.193-0.929,0.232c-0.31,0.038-0.618,0.058-0.928,0.058c-1.007,0-1.646-0.271-1.916-0.812
	c-0.271-0.542-0.271-1.549,0-3.019l1.626-8.297h-5.107l-2.321,11.663H15l2.263-11.663h-1.799L15.928,14h13.406L28.869,16.322z"/>
</svg>
